{
  "accessors": [
    {
      "bufferView": 2,
      "componentType": 5126,
      "count": 4307,
      "max": [
        45.93694305419922,
        37.69660568237305,
        54.02013397216797
      ],
      "min": [
        -47.4171028137207,
        -39.35981750488281,
        -52.5652961730957
      ],
      "type": "VEC3"
    },
    {
      "bufferView": 2,
      "byteOffset": 51684,
      "componentType": 5126,
      "count": 4307,
      "max": [
        1.0,
        1.0,
        1.0
      ],
      "min": [
        -1.0,
        -1.0,
        -1.0
      ],
      "type": "VEC3"
    },
    {
      "bufferView": 1,
      "componentType": 5126,
      "count": 4307,
      "max": [
        1.0000001192092896,
        1.0000001192092896
      ],
      "min": [
        0.0,
        0.0
      ],
      "type": "VEC2"
    },
    {
      "bufferView": 0,
      "componentType": 5125,
      "count": 7401,
      "type": "SCALAR"
    },
    {
      "bufferView": 2,
      "byteOffset": 103368,
      "componentType": 5126,
      "count": 2527,
      "max": [
        42.888641357421875,
        37.66035842895508,
        54.040626525878906
      ],
      "min": [
        -43.51634979248047,
        -37.84907913208008,
        -52.5652961730957
      ],
      "type": "VEC3"
    },
    {
      "bufferView": 2,
      "byteOffset": 133692,
      "componentType": 5126,
      "count": 2527,
      "max": [
        0.9926700592041016,
        0.9996709227561951,
        0.9834048748016357
      ],
      "min": [
        -0.9908312559127808,
        -0.9907740950584412,
        -0.9926362037658691
      ],
      "type": "VEC3"
    },
    {
      "bufferView": 1,
      "byteOffset": 34456,
      "componentType": 5126,
      "count": 2527,
      "max": [
        1.0,
        1.0
      ],
      "min": [
        -0.04692498967051506,
        -0.03686336427927017
      ],
      "type": "VEC2"
    },
    {
      "bufferView": 0,
      "byteOffset": 29604,
      "componentType": 5125,
      "count": 3561,
      "type": "SCALAR"
    },
    {
      "bufferView": 2,
      "byteOffset": 164016,
      "componentType": 5126,
      "count": 396,
      "max": [
        36.71503829956055,
        37.05259323120117,
        51.247413635253906
      ],
      "min": [
        -37.49956512451172,
        -39.078575134277344,
        -50.423980712890625
      ],
      "type": "VEC3"
    },
    {
      "bufferView": 2,
      "byteOffset": 168768,
      "componentType": 5126,
      "count": 396,
      "max": [
        0.8975075483322144,
        0.9999068975448608,
        0.9060071110725403
      ],
      "min": [
        -0.8964959979057312,
        -1.0,
        -0.8960052728652954
      ],
      "type": "VEC3"
    },
    {
      "bufferView": 1,
      "byteOffset": 54672,
      "componentType": 5126,
      "count": 396,
      "max": [
        1.0,
        1.0
      ],
      "min": [
        0.0,
        0.0
      ],
      "type": "VEC2"
    },
    {
      "bufferView": 0,
      "byteOffset": 43848,
      "componentType": 5125,
      "count": 708,
      "type": "SCALAR"
    },
    {
      "bufferView": 2,
      "byteOffset": 173520,
      "componentType": 5126,
      "count": 20,
      "max": [
        40.86605453491211,
        21.208740234375,
        9.95936393737793
      ],
      "min": [
        29.966434478759766,
        12.636341094970703,
        -8.484098434448242
      ],
      "type": "VEC3"
    },
    {
      "bufferView": 2,
      "byteOffset": 173760,
      "componentType": 5126,
      "count": 20,
      "max": [
        -0.705970287322998,
        0.2184576839208603,
        0.6691590547561646
      ],
      "min": [
        -0.853974461555481,
        -0.5175451636314392,
        -0.6691584587097168
      ],
      "type": "VEC3"
    },
    {
      "bufferView": 1,
      "byteOffset": 57840,
      "componentType": 5126,
      "count": 20,
      "max": [
        1.0,
        0.28719809651374817
      ],
      "min": [
        0.871742844581604,
        0.0230418648570776
      ],
      "type": "VEC2"
    },
    {
      "bufferView": 0,
      "byteOffset": 46680,
      "componentType": 5125,
      "count": 24,
      "type": "SCALAR"
    }
  ],
  "asset": {
    "extras": {
      "author": "Ripjet (https://sketchfab.com/Ripjet)",
      "license": "CC-BY-4.0 (http://creativecommons.org/licenses/by/4.0/)",
      "source": "https://sketchfab.com/3d-models/gold-dragon-low-poly-d20-3ec24add819f4128a64d4fdb43391edc",
      "title": "Gold Dragon Low Poly D20"
    },
    "generator": "Sketchfab-12.68.0",
    "version": "2.0"
  },
  "bufferViews": [
    {
      "buffer": 0,
      "byteLength": 46776,
      "name": "floatBufferViews",
      "target": 34963
    },
    {
      "buffer": 0,
      "byteLength": 58000,
      "byteOffset": 46776,
      "byteStride": 8,
      "name": "floatBufferViews",
      "target": 34962
    },
    {
      "buffer": 0,
      "byteLength": 174000,
      "byteOffset": 104776,
      "byteStride": 12,
      "name": "floatBufferViews",
      "target": 34962
    }
  ],
  "buffers": [
    {
      "byteLength": 278776,
      "uri": "scene.bin"
    }
  ],
  "materials": [
    {
      "doubleSided": true,
      "name": "Black",
      "pbrMetallicRoughness": {
        "baseColorFactor": [
          0.000827396,
          0.000827396,
          0.000827396,
          1.0
        ],
        "metallicFactor": 0.0
      }
    },
    {
      "doubleSided": true,
      "name": "Gold",
      "pbrMetallicRoughness": {
        "baseColorFactor": [
          0.8,
          0.549201,
          0.0713465,
          1.0
        ],
        "metallicFactor": 0.8,
        "roughnessFactor": 0.25
      }
    },
    {
      "doubleSided": true,
      "name": "Silver",
      "pbrMetallicRoughness": {
        "baseColorFactor": [
          0.336298,
          0.336298,
          0.336298,
          1.0
        ],
        "metallicFactor": 0.8,
        "roughnessFactor": 0.2
      }
    },
    {
      "doubleSided": true,
      "name": "material",
      "pbrMetallicRoughness": {
        "baseColorFactor": [
          0.8,
          0.0282707,
          0.0353,
          1.0
        ],
        "metallicFactor": 0.0,
        "roughnessFactor": 0.5
      }
    }
  ],
  "meshes": [
    {
      "name": "Object_0",
      "primitives": [
        {
          "attributes": {
            "NORMAL": 1,
            "POSITION": 0,
            "TEXCOORD_0": 2
          },
          "indices": 3,
          "material": 0,
          "mode": 4
        }
      ]
    },
    {
      "name": "Object_1",
      "primitives": [
        {
          "attributes": {
            "NORMAL": 5,
            "POSITION": 4,
            "TEXCOORD_0": 6
          },
          "indices": 7,
          "material": 1,
          "mode": 4
        }
      ]
    },
    {
      "name": "Object_2",
      "primitives": [
        {
          "attributes": {
            "NORMAL": 9,
            "POSITION": 8,
            "TEXCOORD_0": 10
          },
          "indices": 11,
          "material": 2,
          "mode": 4
        }
      ]
    },
    {
      "name": "Object_3",
      "primitives": [
        {
          "attributes": {
            "NORMAL": 13,
            "POSITION": 12,
            "TEXCOORD_0": 14
          },
          "indices": 15,
          "material": 3,
          "mode": 4
        }
      ]
    }
  ],
  "nodes": [
    {
      "children": [
        1
      ],
      "matrix": [
        1.0,
        0.0,
        0.0,
        0.0,
        0.0,
        2.220446049250313e-16,
        -1.0,
        0.0,
        0.0,
        1.0,
        2.220446049250313e-16,
        0.0,
        0.0,
        0.0,
        0.0,
        1.0
      ],
      "name": "Sketchfab_model"
    },
    {
      "children": [
        2
      ],
      "name": "root"
    },
    {
      "children": [
        3
      ],
      "matrix": [
        1.0,
        0.0,
        0.0,
        0.0,
        0.0,
        2.220446049250313e-16,
        1.0,
        0.0,
        0.0,
        -1.0,
        2.220446049250313e-16,
        0.0,
        0.0,
        0.0,
        0.0,
        1.0
      ],
      "name": "GLTF_SceneRootNode"
    },
    {
      "children": [
        4,
        5,
        6,
        7
      ],
      "matrix": [
        0.0004080686200611015,
        -1.3610692117235001e-05,
        -0.0,
        0.0,
        1.3610692117235001e-05,
        0.0004080686200611015,
        0.0,
        0.0,
        0.0,
        -0.0,
        0.0003137816092930734,
        0.0,
        0.0,
        0.0,
        0.0,
        1.0
      ],
      "name": "D20_0"
    },
    {
      "mesh": 0,
      "name": "Object_4"
    },
    {
      "mesh": 1,
      "name": "Object_5"
    },
    {
      "mesh": 2,
      "name": "Object_6"
    },
    {
      "mesh": 3,
      "name": "Object_7"
    }
  ],
  "scene": 0,
  "scenes": [
    {
      "name": "Sketchfab_Scene",
      "nodes": [
        0
      ]
    }
  ]
}
